<?xml version="1.0" encoding="UTF-8" standalone="no"?>
<svg width="24px" height="24px" viewBox="0 0 24 24" version="1.1" xmlns="http://www.w3.org/2000/svg" xmlns:xlink="http://www.w3.org/1999/xlink">
    <!-- Generator: Sketch 39.1 (31720) - http://www.bohemiancoding.com/sketch -->
    <title>Close</title>
    <desc>Created with Sketch.</desc>
    <defs></defs>
    <g id="Symbols" stroke="none" stroke-width="1" fill="none" fill-rule="evenodd">
        <g id="Icon/Close-Button">
            <g id="Close">
                <g id="Layer_2">
                    <g id="Layer_1-2">
                        <circle id="Oval" fill="#4A4A4A" cx="11.8066667" cy="11.8066667" r="11.8066667"></circle>
                        <path d="M16.2333333,16.8866667 C16.0956298,16.8861214 15.963765,16.830978 15.8666667,16.7333333 L6.74666667,7.62 C6.54232132,7.41565464 6.54232133,7.08434537 6.74666668,6.88000001 C6.95101203,6.67565466 7.28232131,6.67565466 7.48666667,6.88 L16.6,16 C16.7478556,16.148681 16.7919454,16.3716181 16.7118153,16.5653873 C16.6316852,16.7591564 16.4430156,16.8858397 16.2333333,16.8866667 L16.2333333,16.8866667 Z" id="Shape" fill="#FFFFFF"></path>
                        <path d="M7.12,16.8866667 C6.90910391,16.8885455 6.71796022,16.762854 6.63611727,16.5684769 C6.55427431,16.3740999 6.59794361,16.1495398 6.74666667,16 L15.8666667,6.88 C16.071012,6.67565465 16.4023213,6.67565465 16.6066667,6.88000001 C16.811012,7.08434536 16.811012,7.41565464 16.6066667,7.62 L7.48666667,16.7333333 C7.38956834,16.830978 7.25770354,16.8861214 7.12,16.8866667 L7.12,16.8866667 Z" id="Shape" fill="#FFFFFF"></path>
                    </g>
                </g>
            </g>
        </g>
    </g>
</svg>