<svg xmlns="http://www.w3.org/2000/svg" viewBox="0 0 30.8 36"><defs><style>.cls-1{fill:#4a4a4a;}</style></defs><title>Door Sensor_1</title><g id="Layer_2" data-name="Layer 2"><g id="Layer_1-2" data-name="Layer 1"><path class="cls-1" d="M23.8,33.63H2.6V2.37H26.4V.59A.59.59,0,0,0,25.81,0H.59A.59.59,0,0,0,0,.59V35.41A.59.59,0,0,0,.59,36H25.81a.59.59,0,0,0,.59-.59V33.63Z"/><path class="cls-1" d="M30.24,3.23H10.87a.56.56,0,0,0-.56.56V32.21a.56.56,0,0,0,.56.56H30.24a.56.56,0,0,0,.56-.56V3.79A.56.56,0,0,0,30.24,3.23ZM28.81,30.35H12.3V5.65H28.81Z"/><path class="cls-1" d="M17.24,18H14.15c-.6,0-.6-1.2,0-1.2h3.09C17.84,16.8,17.84,18,17.24,18Z"/></g></g></svg>