<svg xmlns="http://www.w3.org/2000/svg" viewBox="0 0 74 74"><defs><style>.cls-1{fill:#d8d8d8;}.cls-2{fill:#4a4a4a;}</style></defs><title>Light Circle</title><circle class="cls-1" cx="37" cy="37" r="37"/><path class="cls-2" d="M44.85,27.8l-1.94,1c-2,1-4,2-6,3.16-4.75,2.82-4.47,6.38-4.1,10.88A1.27,1.27,0,0,0,34.12,44h.1a1.27,1.27,0,0,0,1.16-1.36C35,38,35,36.05,38.25,34.12,40.16,33,42,32,44,31l2-1a1.27,1.27,0,0,0-1.15-2.26Z"/><path class="cls-2" d="M45.6,20.52c-2.55,1.32-5.55,2.92-8.45,4.46-3.35,1.78-6.51,3.47-8.81,4.63a1.27,1.27,0,1,0,1.15,2.26C31.81,30.7,35,29,38.34,27.22c2.89-1.54,5.88-3.13,8.43-4.45a1.27,1.27,0,0,0-1.16-2.25Z"/><path class="cls-2" d="M28.6,25.35a1.26,1.26,0,0,0,.57-.13c1.59-.79,4.22-2.15,7-3.59,3.07-1.58,6.25-3.22,8.72-4.46a1.27,1.27,0,1,0-1.14-2.27c-2.48,1.25-5.67,2.89-8.74,4.48-2.78,1.43-5.4,2.79-7,3.57a1.27,1.27,0,0,0,.57,2.4Z"/><path class="cls-2" d="M29.57,18.48a1.26,1.26,0,0,0,.56-.13l2.52-1.21c1.85-.88,3.95-1.88,5.65-2.74a1.27,1.27,0,1,0-1.15-2.26c-1.67.85-3.76,1.84-5.6,2.72L29,16.08a1.27,1.27,0,0,0,.56,2.41Z"/><path class="cls-2" d="M40.64,43.87h0a1.27,1.27,0,0,0,1.24-1.29c0-.91,0-1.8,0-2.68s0-1.78,0-2.7A1.27,1.27,0,0,0,40.6,36h0a1.27,1.27,0,0,0-1.24,1.29c0,.91,0,1.78,0,2.65s0,1.79,0,2.73A1.27,1.27,0,0,0,40.64,43.87Z"/><path class="cls-2" d="M44.07,46.63H30.72a1.27,1.27,0,0,0-1.27,1.27V53c0,2.83,1.73,5.16,4,5.51l.37.38A3.39,3.39,0,0,0,37.4,62,3.39,3.39,0,0,0,41,58.89l.36-.38c2.26-.31,4-2.67,4-5.52v-5.1A1.27,1.27,0,0,0,44.07,46.63ZM42.8,53c0,1.61-.93,3-2.06,3a1.27,1.27,0,0,0-.92.39l-1,1.07a1.27,1.27,0,0,0-.35.88c0,.81-.3,1.12-1.06,1.12s-1.06-.31-1.06-1.12a1.27,1.27,0,0,0-.35-.88L35,56.4A1.41,1.41,0,0,0,34,56c-1.06,0-2-1.41-2-3V49.16H42.8V53Z"/></svg>