<svg xmlns="http://www.w3.org/2000/svg" viewBox="0 0 74 74"><defs><style>.cls-1{fill:#d8d8d8;}.cls-2{fill:#4a4a4a;}</style></defs><title>Lock Circle</title><g id="Layer_2" data-name="Layer 2"><g id="Layer_1-2" data-name="Layer 1"><circle class="cls-1" cx="37" cy="37" r="37"/><path class="cls-2" d="M44.53,29.36h2.68a17.44,17.44,0,0,0-2.68-1.6Z"/><path class="cls-2" d="M29.46,23.72V20.55c0-2.95,3.38-5.3,7.53-5.3s7.54,2.38,7.54,5.3v3.17a21.06,21.06,0,0,1,3.26,1.57V20.55C47.79,15.85,43,12,37,12s-10.79,3.85-10.79,8.55v4.75A21.06,21.06,0,0,1,29.46,23.72Z"/><path class="cls-2" d="M26.78,29.36h2.68v-1.6A17.43,17.43,0,0,0,26.78,29.36Z"/><path class="cls-2" d="M37,62A18.51,18.51,0,1,1,55.51,43.49,18.51,18.51,0,0,1,37,62Zm0-33.76A15.26,15.26,0,1,0,52.26,43.49,15.26,15.26,0,0,0,37,28.24Z"/><circle class="cls-2" cx="37" cy="43.49" r="3.49"/><rect class="cls-2" x="35.43" y="43.86" width="3.13" height="9.4" rx="1.57" ry="1.57"/></g></g></svg>