<svg xmlns="http://www.w3.org/2000/svg" viewBox="0 0 37.02 50"><defs><style>.cls-1{fill:#4a4a4a;}</style></defs><title>Lock</title><g id="Layer_2" data-name="Layer 2"><g id="Layer_1-2" data-name="Layer 1"><path class="cls-1" d="M26,17.36h2.68A17.44,17.44,0,0,0,26,15.76Z"/><path class="cls-1" d="M11,11.72V8.55c0-2.95,3.38-5.3,7.53-5.3S26,5.63,26,8.55v3.17a21.06,21.06,0,0,1,3.26,1.57V8.55C29.3,3.85,24.46,0,18.51,0S7.72,3.85,7.72,8.55v4.75A21.06,21.06,0,0,1,11,11.72Z"/><path class="cls-1" d="M8.29,17.36H11v-1.6A17.43,17.43,0,0,0,8.29,17.36Z"/><path class="cls-1" d="M18.51,50A18.51,18.51,0,1,1,37,31.49,18.51,18.51,0,0,1,18.51,50Zm0-33.76A15.26,15.26,0,1,0,33.76,31.49,15.26,15.26,0,0,0,18.51,16.24Z"/><circle class="cls-1" cx="18.51" cy="31.49" r="3.49"/><rect class="cls-1" x="16.94" y="31.86" width="3.13" height="9.4" rx="1.57" ry="1.57"/></g></g></svg>