<?xml version="1.0" encoding="UTF-8" standalone="no"?>
<svg width="24px" height="23px" viewBox="0 0 24 23" version="1.1" xmlns="http://www.w3.org/2000/svg" xmlns:xlink="http://www.w3.org/1999/xlink">
    <!-- Generator: Sketch 39.1 (31720) - http://www.bohemiancoding.com/sketch -->
    <title>Icon/Notification</title>
    <desc>Created with Sketch.</desc>
    <defs></defs>
    <g id="Redesign-1" stroke="none" stroke-width="1" fill="none" fill-rule="evenodd">
        <g id="Desktop" transform="translate(-1178.000000, -17.000000)" fill="#4A4A4A">
            <g id="Top-Nav-Bar">
                <g id="Icon/Notification" transform="translate(1178.000000, 17.000000)">
                    <path d="M23.348664,17.8564379 L20.7455544,17.8564379 L20.7455544,8.67963877 C20.7455544,8.66176334 20.7444372,8.64388791 20.74332,8.62712969 C20.6785216,3.86556187 16.7671539,0 12,0 C7.2328461,0 3.32147845,3.86556187 3.25668001,8.62601248 C3.2555628,8.64388791 3.25444558,8.66176334 3.25444558,8.67963877 L3.25444558,17.8575552 L0.651336002,17.8575552 C0.291592962,17.8575552 0,18.1491481 0,18.5088912 C0,18.8686342 0.291592962,19.1602272 0.651336002,19.1602272 L8.19923657,19.1602272 C8.51987711,20.9678801 10.1007355,22.3465227 12,22.3465227 C13.8992645,22.3465227 15.4801229,20.9678801 15.8007634,19.15911 L23.348664,19.15911 C23.708407,19.15911 24,18.867517 24,18.507774 C23.9988828,18.1480309 23.708407,17.8564379 23.348664,17.8564379 L23.348664,17.8564379 Z M12,21.0449679 C10.8213388,21.0449679 9.8292524,20.2439251 9.53095615,19.15911 L14.4690439,19.15911 C14.1718648,20.2439251 13.1786612,21.0449679 12,21.0449679 L12,21.0449679 Z M19.4439996,17.7905223 L4.55600037,17.7905223 L4.55600037,8.72544456 C4.55711759,8.71203799 4.55711759,8.69863141 4.55711759,8.68522484 C4.59063402,4.61409552 7.92887068,1.30155479 12,1.30155479 C16.0711293,1.30155479 19.409366,4.61409552 19.4417652,8.68410762 C19.4417652,8.6975142 19.4428824,8.71092077 19.4428824,8.72432734 L19.4428824,17.7905223 L19.4439996,17.7905223 Z"></path>
                </g>
            </g>
        </g>
    </g>
</svg>