<svg xmlns="http://www.w3.org/2000/svg" viewBox="0 0 74 74"><defs><style>.cls-1{fill:#d8d8d8;}.cls-2{fill:#4a4a4a;}</style></defs><title>Oven Circle</title><g id="Layer_2" data-name="Layer 2"><g id="Layer_1-2" data-name="Layer 1"><circle class="cls-1" cx="37" cy="37" r="37"/><path class="cls-2" d="M40.41,26.65a1.71,1.71,0,1,1,1.71-1.71A1.71,1.71,0,0,1,40.41,26.65Zm0-2.73a1,1,0,1,0,1,1A1,1,0,0,0,40.41,23.92Z"/><path class="cls-2" d="M45.19,26.65a1.71,1.71,0,1,1,1.71-1.71A1.71,1.71,0,0,1,45.19,26.65Zm0-2.73a1,1,0,1,0,1,1A1,1,0,0,0,45.19,23.92Z"/><path class="cls-2" d="M46.56,34.56V48.21H27.44V34.56H46.56m.61-1.37H26.83a.75.75,0,0,0-.75.75V48.82a.75.75,0,0,0,.75.75H47.17a.75.75,0,0,0,.75-.75V33.95a.75.75,0,0,0-.75-.75Z"/><path class="cls-2" d="M44.51,40v0h0m0-.68a.68.68,0,0,0-.68.68v2.73a.68.68,0,0,0,1.37,0V40a.68.68,0,0,0-.68-.68Z"/><path class="cls-2" d="M48.62,55H25.38a4,4,0,0,1-4-4V23a4,4,0,0,1,4-4H48.62a4,4,0,0,1,4,4V51A4,4,0,0,1,48.62,55ZM25.38,21.49a1.5,1.5,0,0,0-1.5,1.5V51a1.5,1.5,0,0,0,1.5,1.5H48.62a1.5,1.5,0,0,0,1.5-1.5V23a1.5,1.5,0,0,0-1.5-1.5Z"/></g></g></svg>