<svg xmlns="http://www.w3.org/2000/svg" viewBox="0 0 31.21 36"><defs><style>.cls-1{fill:#4a4a4a;}</style></defs><title>Oven</title><g id="Layer_2" data-name="Layer 2"><g id="Layer_1-2" data-name="Layer 1"><path class="cls-1" d="M19,7.65a1.71,1.71,0,1,1,1.71-1.71A1.71,1.71,0,0,1,19,7.65Zm0-2.73a1,1,0,1,0,1,1A1,1,0,0,0,19,4.92Z"/><path class="cls-1" d="M23.8,7.65A1.71,1.71,0,1,1,25.5,5.94,1.71,1.71,0,0,1,23.8,7.65Zm0-2.73a1,1,0,1,0,1,1A1,1,0,0,0,23.8,4.92Z"/><path class="cls-1" d="M25.16,15.56V29.21H6.05V15.56H25.16m.61-1.37H5.44a.75.75,0,0,0-.75.75V29.82a.75.75,0,0,0,.75.75H25.77a.75.75,0,0,0,.75-.75V14.95a.75.75,0,0,0-.75-.75Z"/><path class="cls-1" d="M23.11,21v0h0m0-.68a.68.68,0,0,0-.68.68v2.73a.68.68,0,0,0,1.37,0V21a.68.68,0,0,0-.68-.68Z"/><path class="cls-1" d="M27.22,36H4a4,4,0,0,1-4-4V4A4,4,0,0,1,4,0H27.22a4,4,0,0,1,4,4V32A4,4,0,0,1,27.22,36ZM4,2.49A1.5,1.5,0,0,0,2.49,4V32A1.5,1.5,0,0,0,4,33.51H27.22a1.5,1.5,0,0,0,1.5-1.5V4a1.5,1.5,0,0,0-1.5-1.5Z"/></g></g></svg>