<svg xmlns="http://www.w3.org/2000/svg" viewBox="0 0 74 74"><defs><style>.cls-1{fill:#d8d8d8;}.cls-2{fill:#4a4a4a;}</style></defs><title>Refrigerator Circle</title><g id="Layer_2" data-name="Layer 2"><g id="Layer_1-2" data-name="Layer 1"><circle class="cls-1" cx="37" cy="37" r="37"/><path class="cls-2" d="M25.18,28.31V57.85a3,3,0,0,0,3,3V62h2.93V60.82H42.94V62h2.93V60.82a3,3,0,0,0,2.95-3V28.31ZM46,57a1.14,1.14,0,0,1-.31.79h0a1,1,0,0,1-.75.33H29a1,1,0,0,1-.75-.32h0A1.13,1.13,0,0,1,28,57V30.32H46Z"/><path class="cls-2" d="M45.86,12H28.14a3,3,0,0,0-3,3V30.32H48.82V15A3,3,0,0,0,45.86,12ZM46,28.31H28V15.57a1.07,1.07,0,0,1,.31-.76l.05-.06a1.07,1.07,0,0,1,.7-.26H45a1.06,1.06,0,0,1,.75.31,1.08,1.08,0,0,1,.32.76Z"/><path class="cls-2" d="M33.93,25.71H29.8a.6.6,0,0,1,0-1.2h4.13A.6.6,0,0,1,33.93,25.71Z"/><path class="cls-2" d="M33.93,34.11H29.8a.6.6,0,0,1,0-1.2h4.13A.6.6,0,0,1,33.93,34.11Z"/></g></g></svg>