<?xml version="1.0" encoding="UTF-8" standalone="no"?>
<svg width="17px" height="21px" viewBox="0 0 17 21" version="1.1" xmlns="http://www.w3.org/2000/svg" xmlns:xlink="http://www.w3.org/1999/xlink">
    <!-- Generator: Sketch 39.1 (31720) - http://www.bohemiancoding.com/sketch -->
    <title>#</title>
    <desc>Created with Sketch.</desc>
    <defs></defs>
    <g id="Symbols" stroke="none" stroke-width="1" fill="none" fill-rule="evenodd">
        <g id="Icon/Social-Media" fill="#4A4A4A">
            <path d="M9.24335186,14.4846403 L6.60598923,14.4846403 L5.6307145,20.1165085 L3.10324197,20.1165085 L4.09225296,14.4846403 L0.974121094,14.4846403 L0.974121094,12.1632118 L4.49060461,12.1632118 L5.19115406,8.17969527 L2.00434087,8.17969527 L2.00434087,5.83079417 L5.60324197,5.83079417 L6.60598923,0.116508457 L9.11972549,0.116508457 L8.11697824,5.83079417 L10.7543409,5.83079417 L11.7708244,0.116508457 L14.2845607,0.116508457 L13.2818134,5.83079417 L16.3037914,5.83079417 L16.3037914,8.17969527 L12.8697255,8.17969527 L12.169176,12.1632118 L15.2598354,12.1632118 L15.2598354,14.4846403 L11.7708244,14.4846403 L10.7818134,20.1165085 L8.25434087,20.1165085 L9.24335186,14.4846403 Z M7.01807714,12.1632118 L9.64170351,12.1632118 L10.342253,8.17969527 L7.70489032,8.17969527 L7.01807714,12.1632118 Z" id="#"></path>
        </g>
    </g>
</svg>