<svg xmlns="http://www.w3.org/2000/svg" viewBox="0 0 74 74"><defs><style>.cls-1{fill:#d8d8d8;}.cls-2{fill:#4a4a4a;}</style></defs><title>Thermostat Circle</title><g id="Layer_2" data-name="Layer 2"><g id="Layer_1-2" data-name="Layer 1"><circle class="cls-1" cx="37" cy="37" r="37"/><path class="cls-2" d="M37,29.08A10.34,10.34,0,1,0,47.34,39.41,10.34,10.34,0,0,0,37,29.08ZM37,48.2a8.78,8.78,0,1,1,8.78-8.78A8.78,8.78,0,0,1,37,48.2Z"/><path class="cls-2" d="M40.11,33.64l-.19-1.46-1.12,1A6.46,6.46,0,0,0,37.15,33c-3.25,0-6.94,2.62-6.94,6.16a.78.78,0,0,0,1.55,0c0-2.62,2.86-4.61,5.39-4.61s5.39,2,5.39,4.61a.78.78,0,0,0,1.55,0A6.41,6.41,0,0,0,40.11,33.64Z"/><path class="cls-2" d="M37.1,27.77a.46.46,0,0,0,.49-.49V23.5a.49.49,0,1,0-1,0v3.78A.46.46,0,0,0,37.1,27.77Z"/><path class="cls-2" d="M38.89,27.77H39a.47.47,0,0,0,.49-.39L40,25.15A.49.49,0,0,0,39,25l-.49,2.23A.59.59,0,0,0,38.89,27.77Z"/><path class="cls-2" d="M34.53,27.38a.47.47,0,0,0,.49.39h.1a.5.5,0,0,0,.39-.58L35,25a.49.49,0,0,0-1,.19Z"/><path class="cls-2" d="M37,60A23,23,0,1,1,60,37,23,23,0,0,1,37,60Zm0-43.4A20.4,20.4,0,1,0,57.4,37,20.42,20.42,0,0,0,37,16.6Z"/></g></g></svg>