<svg xmlns="http://www.w3.org/2000/svg" viewBox="0 0 46 46"><defs><style>.cls-1{fill:#4a4a4a;}</style></defs><title>Thermostat</title><g id="Layer_2" data-name="Layer 2"><g id="Layer_1-2" data-name="Layer 1"><path class="cls-1" d="M23,15.08A10.34,10.34,0,1,0,33.34,25.41,10.34,10.34,0,0,0,23,15.08ZM23,34.2a8.78,8.78,0,1,1,8.78-8.78A8.78,8.78,0,0,1,23,34.2Z"/><path class="cls-1" d="M26.11,19.64l-.19-1.46-1.12,1A6.46,6.46,0,0,0,23.15,19c-3.25,0-6.94,2.62-6.94,6.16a.78.78,0,0,0,1.55,0c0-2.62,2.86-4.61,5.39-4.61s5.39,2,5.39,4.61a.78.78,0,0,0,1.55,0A6.41,6.41,0,0,0,26.11,19.64Z"/><path class="cls-1" d="M23.1,13.77a.46.46,0,0,0,.49-.49V9.5a.49.49,0,1,0-1,0v3.78A.46.46,0,0,0,23.1,13.77Z"/><path class="cls-1" d="M24.89,13.77H25a.47.47,0,0,0,.49-.39L26,11.15A.49.49,0,0,0,25,11l-.49,2.23A.59.59,0,0,0,24.89,13.77Z"/><path class="cls-1" d="M20.53,13.38a.47.47,0,0,0,.49.39h.1a.5.5,0,0,0,.39-.58L21,11a.49.49,0,0,0-1,.19Z"/><path class="cls-1" d="M23,46A23,23,0,1,1,46,23,23,23,0,0,1,23,46ZM23,2.6A20.4,20.4,0,1,0,43.4,23,20.42,20.42,0,0,0,23,2.6Z"/></g></g></svg>