<svg xmlns="http://www.w3.org/2000/svg" viewBox="0 0 20.12 50"><defs><style>.cls-1{fill:#4a4a4a;}</style></defs><title>Light</title><g id="Layer_2" data-name="Layer 2"><g id="Layer_1-2" data-name="Layer 1"><path class="cls-1" d="M17.52,15.8l-1.94,1c-2,1-4,2-6,3.16-4.75,2.82-4.47,6.38-4.1,10.88A1.27,1.27,0,0,0,6.78,32h.1A1.27,1.27,0,0,0,8,30.61c-.37-4.61-.39-6.56,2.87-8.5C12.83,21,14.71,20,16.71,19l2-1a1.27,1.27,0,0,0-1.15-2.26Z"/><path class="cls-1" d="M18.27,8.52C15.71,9.84,12.72,11.44,9.82,13,6.47,14.76,3.31,16.45,1,17.61a1.27,1.27,0,1,0,1.15,2.26C4.47,18.7,7.65,17,11,15.22c2.89-1.54,5.88-3.13,8.43-4.45a1.27,1.27,0,0,0-1.16-2.25Z"/><path class="cls-1" d="M1.27,13.35a1.26,1.26,0,0,0,.57-.13c1.59-.79,4.22-2.15,7-3.59C11.92,8,15.09,6.41,17.57,5.17A1.27,1.27,0,1,0,16.43,2.9c-2.48,1.25-5.67,2.89-8.74,4.48-2.78,1.43-5.4,2.79-7,3.57a1.27,1.27,0,0,0,.57,2.4Z"/><path class="cls-1" d="M2.24,6.48a1.26,1.26,0,0,0,.56-.13L5.32,5.14C7.17,4.26,9.26,3.26,11,2.4A1.27,1.27,0,1,0,9.82.14C8.15,1,6.06,2,4.22,2.85L1.68,4.08a1.27,1.27,0,0,0,.56,2.41Z"/><path class="cls-1" d="M13.3,31.87h0a1.27,1.27,0,0,0,1.24-1.29c0-.91,0-1.8,0-2.68s0-1.78,0-2.7A1.27,1.27,0,0,0,13.27,24h0A1.27,1.27,0,0,0,12,25.25c0,.91,0,1.78,0,2.65s0,1.79,0,2.73A1.27,1.27,0,0,0,13.3,31.87Z"/><path class="cls-1" d="M16.73,34.63H3.39a1.27,1.27,0,0,0-1.27,1.27V41c0,2.83,1.73,5.16,4,5.51l.37.38A3.39,3.39,0,0,0,10.06,50a3.39,3.39,0,0,0,3.56-3.11l.36-.38c2.26-.31,4-2.67,4-5.52v-5.1A1.27,1.27,0,0,0,16.73,34.63ZM15.47,41c0,1.61-.93,3-2.06,3a1.27,1.27,0,0,0-.92.39l-1,1.07a1.27,1.27,0,0,0-.35.88c0,.81-.3,1.12-1.06,1.12S9,47.15,9,46.34a1.27,1.27,0,0,0-.35-.88l-1-1.07a1.41,1.41,0,0,0-1-.39c-1.06,0-2-1.41-2-3V37.16H15.47V41Z"/></g></g></svg>