<svg xmlns="http://www.w3.org/2000/svg" viewBox="0 0 23.64 50"><defs><style>.cls-1{fill:#4a4a4a;}</style></defs><title>Refrigerator</title><g id="Layer_2" data-name="Layer 2"><g id="Layer_1-2" data-name="Layer 1"><path class="cls-1" d="M0,16.31V45.85a3,3,0,0,0,3,3V50H5.89V48.82H17.76V50h2.93V48.82a3,3,0,0,0,2.95-3V16.31ZM20.86,45a1.14,1.14,0,0,1-.31.79h0a1,1,0,0,1-.75.33H3.85a1,1,0,0,1-.75-.32h0A1.13,1.13,0,0,1,2.78,45V18.32H20.86Z"/><path class="cls-1" d="M20.68,0H3A3,3,0,0,0,0,3V18.32H23.64V3A3,3,0,0,0,20.68,0Zm.18,16.31H2.78V3.57a1.07,1.07,0,0,1,.31-.76l.05-.06a1.07,1.07,0,0,1,.7-.26H19.79a1.06,1.06,0,0,1,.75.31,1.08,1.08,0,0,1,.32.76Z"/><path class="cls-1" d="M8.75,13.71H4.62a.6.6,0,0,1,0-1.2H8.75A.6.6,0,0,1,8.75,13.71Z"/><path class="cls-1" d="M8.75,22.11H4.62a.6.6,0,0,1,0-1.2H8.75A.6.6,0,0,1,8.75,22.11Z"/></g></g></svg>